HIERARCHY
ROOT root
{
	OFFSET	0	13.1	24.9
	CHANNELS 6  Xposition Yposition Zposition Xrotation Yrotation Zrotation
	JOINT spine_1
	{
		OFFSET	0	9.99999	0
		CHANNELS 3  Xrotation Yrotation Zrotation
		JOINT spine_2
		{
			OFFSET	0	112	-10
			CHANNELS 3  Xrotation Yrotation Zrotation
			JOINT spine_3
			{
				OFFSET	0	206.5	19.3
				CHANNELS 3  Xrotation Yrotation Zrotation
				JOINT spine_4
				{
					OFFSET	0	110.4	14.6
					CHANNELS 3  Xrotation Yrotation Zrotation
					JOINT neck_1
					{
						OFFSET	0	71.8	-50.3
						CHANNELS 3  Xrotation Yrotation Zrotation
						JOINT neck_2
						{
							OFFSET	0	86.2	-25.8
							CHANNELS 3  Xrotation Yrotation Zrotation
							JOINT head_ee
							{
								OFFSET	0	179.8	-8.7
								CHANNELS 3  Xrotation Yrotation Zrotation
								End Site
								{
									OFFSET	1	0	0
								}
							}
						}
					}
					JOINT left_clavicle
					{
						OFFSET	-43.2	22.4	-70.8
						CHANNELS 3  Xrotation Yrotation Zrotation
						JOINT left_shoulder
						{
							OFFSET	-93.9	-5.79999	48.7
							CHANNELS 3  Xrotation Yrotation Zrotation
							JOINT left_elbow
							{
								OFFSET	-291.4	-30.8	15.2
								CHANNELS 3  Xrotation Yrotation Zrotation
								JOINT left_lowarm_twist
								{
									OFFSET	-110.7	-3.89999	13.6
									CHANNELS 3  Xrotation Yrotation Zrotation
									JOINT left_hand
									{
										OFFSET	-110.7	-3.89999	13.6
										CHANNELS 3  Xrotation Yrotation Zrotation
										JOINT left_ee
										{
											OFFSET	-80.8	-5.10001	12.1
											CHANNELS 3  Xrotation Yrotation Zrotation
											End Site
											{
												OFFSET	1	0	0
											}
										}
									}
								}
							}
						}
					}
					JOINT right_clavicle
					{
						OFFSET	43.2	22.4	-70.8
						CHANNELS 3  Xrotation Yrotation Zrotation
						JOINT right_shoulder
						{
							OFFSET	93.9	-5.79999	48.7
							CHANNELS 3  Xrotation Yrotation Zrotation
							JOINT right_elbow
							{
								OFFSET	291.4	-30.8	15.2
								CHANNELS 3  Xrotation Yrotation Zrotation
								JOINT right_lowarm_twist
								{
									OFFSET	110.7	-3.89999	13.6
									CHANNELS 3  Xrotation Yrotation Zrotation
									JOINT right_hand
									{
										OFFSET	110.7	-3.89999	13.6
										CHANNELS 3  Xrotation Yrotation Zrotation
										JOINT right_ee
										{
											OFFSET	80.8	-5.10001	12.1
											CHANNELS 3  Xrotation Yrotation Zrotation
											End Site
											{
												OFFSET	1	0	0
											}
										}
									}
								}
							}
						}
					}
				}
			}
		}
	}
	JOINT left_hip
	{
		OFFSET	-82.8	-127.5	0.300001
		CHANNELS 3  Xrotation Yrotation Zrotation
		JOINT left_knee
		{
			OFFSET	-28.2	-396.7	2.2
			CHANNELS 3  Xrotation Yrotation Zrotation
			JOINT left_ankle
			{
				OFFSET	-11.7	-411.3	35.4
				CHANNELS 3  Xrotation Yrotation Zrotation
				JOINT left_toes
				{
					OFFSET	0	-60	-88.6
					CHANNELS 3  Xrotation Yrotation Zrotation
					JOINT left_foot_ee
					{
						OFFSET	-22.5	-16.5	-42.2
						CHANNELS 3  Xrotation Yrotation Zrotation
						End Site
						{
							OFFSET	1	0	0
						}
					}
				}
			}
		}
	}
	JOINT right_hip
	{
		OFFSET	82.8	-127.5	0.300001
		CHANNELS 3  Xrotation Yrotation Zrotation
		JOINT right_knee
		{
			OFFSET	28.2	-396.7	2.2
			CHANNELS 3  Xrotation Yrotation Zrotation
			JOINT right_ankle
			{
				OFFSET	11.7	-411.3	35.4
				CHANNELS 3  Xrotation Yrotation Zrotation
				JOINT right_toes
				{
					OFFSET	0	-60	-88.6
					CHANNELS 3  Xrotation Yrotation Zrotation
					JOINT right_foot_ee
					{
						OFFSET	22.5	-16.5	-42.2
						CHANNELS 3  Xrotation Yrotation Zrotation
						End Site
						{
							OFFSET	1	0	0
						}
					}
				}
			}
		}
	}
}
MOTION
Frames: 5
Frame Time: 0.02
3807.67 661.276 -447.124 -31.5184 19.3047 11.3226 12.9608 0.30221 0.568328 12.961 0.265434 0.586405 12.9632 0.27392 0.58249 12.9629 0.362475 0.531921 -26.0086 -9.09323 6.88789 -26.808 -20.2682 1.48888 -0.0 0.0 -0.0 6.01284 19.3952 11.2836 -33.7998 -32.3325 60.2812 0.471983 -13.1599 0.0544433 -34.0861 -2.3453 3.60439 -4.71541 4.33077 -30.78 -0.0 0.0 -0.0 8.84181 -7.54318 -16.9038 -42.5439 16.3964 -57.0336 0.306191 8.62496 -0.0230897 -68.4126 6.34362 -5.28519 0.191654 26.1147 9.81058 0.0 0.0 0.0 36.7364 31.2771 -0.371818 -13.279 0.315157 2.00893 25.7246 -17.8154 -3.74718 -16.644 0.0 0.0 -0.0 0.0 -0.0 41.1116 26.1715 -1.76483 -25.6741 -0.185306 -3.90272 23.7688 -14.0003 3.21215 9.28255 -0.0 -0.0 0.0 0.0 0.0 
3806.48 651.237 -443.923 -31.4693 19.2974 11.2665 12.8596 0.366226 0.495115 12.8596 0.333979 0.517415 12.8623 0.340554 0.513111 12.8622 0.417316 0.452888 -26.0367 -8.21478 6.11356 -26.6837 -18.2675 1.2708 -0.0 0.0 -0.0 5.25603 20.1067 10.1047 -30.3865 -31.8194 62.9345 0.460223 -12.8431 0.0517977 -32.7704 -2.21714 3.49458 -4.03273 2.08738 -26.9119 -0.0 0.0 -0.0 9.41206 -5.36058 -18.1523 -42.6889 15.7232 -56.9956 0.372492 10.4549 -0.0340794 -66.6485 6.11924 -5.25961 0.153797 27.431 10.6061 0.0 0.0 0.0 37.9515 28.8669 -0.373851 -14.9271 0.321561 2.26171 30.3281 -14.1433 -4.17967 -19.7545 0.0 0.0 -0.0 0.0 -0.0 39.9212 20.1907 -0.21293 -20.4257 -0.290335 -3.10446 26.0795 -11.7021 3.46877 4.99925 -0.0 -0.0 0.0 0.0 0.0 
3809.02 651.046 -459.089 -31.4539 19.7663 11.243 12.7809 0.431026 0.574417 12.781 0.393602 0.60068 12.7847 0.400434 0.596147 12.7846 0.489557 0.525427 -24.9877 -6.4966 6.61711 -25.3571 -15.3032 2.81461 -0.0 0.0 -0.0 3.433 23.0682 7.42721 -30.2166 -32.4329 62.0686 0.379054 -10.6349 0.0352805 -31.5032 -2.09614 3.38609 -3.03185 -5.63569 -23.4848 -0.0 0.0 -0.0 10.3198 -3.93809 -20.0551 -43.1768 15.2605 -58.3141 0.42156 11.7957 -0.0435481 -64.5679 5.85568 -5.22053 0.141336 27.8843 10.875 0.0 0.0 0.0 37.4608 22.9173 -1.19365 -20.6107 0.287878 3.13275 39.3498 -5.96104 -4.8903 -21.1443 0.0 0.0 -0.0 0.0 -0.0 37.0694 13.1804 0.228485 -13.3127 -0.315361 -2.0141 31.8871 -7.85103 4.08871 -2.02192 0.0 0.0 0.0 0.0 0.0 
3809.2 640.875 -456.841 -31.3059 20.828 11.9923 12.5366 0.366003 0.627877 12.5368 0.325308 0.649893 12.5399 0.32994 0.647554 12.5396 0.428067 0.587322 -25.4615 -5.33953 4.66867 -25.7194 -12.2137 1.57201 -0.0 0.0 -0.0 2.3983 24.4252 6.03927 -26.3578 -32.69 64.0394 0.19227 -5.44085 0.00913594 -30.7872 -2.02884 3.32361 -2.18741 -12.4686 -20.4483 -0.0 0.0 -0.0 10.7684 -0.13521 -21.2438 -43.0783 13.2182 -59.7841 0.450274 12.5743 -0.0496089 -61.8979 5.51969 -5.15634 0.144397 28.5701 11.139 0.0 0.0 0.0 38.158 17.7215 -0.987572 -23.9533 0.227799 3.64207 40.7012 -0.735054 -4.94141 -17.8543 0.0 0.0 -0.0 0.0 -0.0 34.2193 6.9267 1.21077 -8.08801 -0.247546 -1.21555 39.0021 -6.92762 4.77281 -8.37831 0.0 0.0 0.0 0.0 0.0 
3811.98 645.026 -458.355 -31.1106 23.5995 12.8703 12.0615 0.130233 0.723137 12.0618 0.0839557 0.729958 12.062 0.0830624 0.73006 12.0614 0.197317 0.707782 -24.868 -4.18038 2.85121 -25.021 -9.26563 0.534746 -0.0 0.0 -0.0 1.76898 23.3349 5.13018 -23.1023 -30.5659 66.7342 0.184786 -5.23029 0.00844001 -30.1544 -1.97001 3.26771 -0.826388 -17.4704 -13.0348 -0.0 0.0 -0.0 11.61 4.88517 -23.3007 -38.096 10.6625 -63.3804 0.418487 11.7121 -0.0429221 -59.3419 5.20102 -5.08022 0.239155 27.5237 10.0914 0.0 0.0 0.0 39.8091 10.8919 -0.707546 -26.1511 0.172141 3.97475 40.6034 4.61967 -4.90967 -14.5974 0.0 0.0 -0.0 0.0 -0.0 32.4345 0.0409111 2.19973 -2.03512 -0.0784287 -0.302459 40.6356 -7.73115 4.91838 -13.2165 0.0 0.0 0.0 0.0 0.0 
